Coordinates
version=1
nRows=14
nColumns=36
inDegrees=yes

Units are S.I. units (second, meters, Newtons, ...)
If the header above contains a line with 'inDegrees', this indicates whether rotational values are in degrees (yes) or radians (no).

endheader
time	pelvis_tilt	pelvis_list	pelvis_rotation	pelvis_tx	pelvis_ty	pelvis_tz	hip_flexion_r	hip_adduction_r	hip_rotation_r	knee_angle_r	knee_angle_r_beta	ankle_angle_r	subtalar_angle_r	mtp_angle_r	hip_flexion_l	hip_adduction_l	hip_rotation_l	knee_angle_l	knee_angle_l_beta	ankle_angle_l	subtalar_angle_l	mtp_angle_l	lumbar_extension	lumbar_bending	lumbar_rotation	arm_flex_r	arm_add_r	arm_rot_r	elbow_flex_r	pro_sup_r	arm_flex_l	arm_add_l	arm_rot_l	elbow_flex_l	pro_sup_l
      1.60000000	     -3.95971149	     -1.31930514	      0.10890760	      0.60647707	      1.00139792	     -0.21078180	      2.05656930	      0.72133087	     -4.11932172	      1.52979293	      0.02669992	      2.13224312	    -21.43476386	     -7.49999604	     -1.78143411	     -3.08916470	    -10.13517238	      0.42136060	      0.00735413	      7.89977893	    -11.59928344	     -7.49999604	     -6.26976657	      2.26357949	      2.59353796	     14.00377218	     -7.09079529	     19.67723538	     33.53849819	     84.69373321	     14.97156752	     -8.01517837	     23.00031470	     42.84260194	     88.16127174
      1.61666670	     -3.97362934	     -1.36136938	      0.11998065	      0.61006128	      1.00183433	     -0.21302647	      1.97933243	      0.74544622	     -4.11321249	      1.48593544	      0.02593447	      2.07813955	    -21.63332109	     -7.49999613	     -1.87027544	     -3.11407909	    -10.31727411	      0.38241634	      0.00667442	      8.04446647	    -11.34534277	     -7.49999613	     -5.87063477	      2.24466369	      2.58824047	     13.22206248	     -6.88672695	     19.48402011	     33.21686798	     84.83648093	     13.99000605	     -7.88869381	     22.87261209	     41.56467848	     88.39724759
      1.63333330	     -3.98860998	     -1.39987459	     -0.01299226	      0.61058056	      0.99587142	     -0.21308483	      1.89015126	      0.78136959	     -3.89403745	      1.43079030	      0.02497200	      2.06361822	    -21.91521073	     -7.49999664	     -1.98593378	     -3.13948140	    -10.56024877	      0.35116379	      0.00612896	      8.22437066	    -11.32715442	     -7.49999664	     -5.36826689	      2.21925393	      2.62510399	     12.45690320	     -6.74459973	     19.41223916	     32.82344104	     83.74610618	     13.08399695	     -7.80368333	     23.06617317	     39.89398814	     87.35849662
      1.65000000	     -3.97472659	     -1.44703167	     -0.09051245	      0.61062937	      0.99596566	     -0.21297675	      1.76210234	      0.83934527	     -3.79438037	      1.40309015	      0.02448854	      2.06555492	    -22.06404329	     -7.49999781	     -2.14168670	     -3.17515423	    -10.73576595	      0.31906521	      0.00556874	      8.26390549	    -11.26880695	     -7.49999781	     -4.93318878	      2.18074006	      2.65174606	     11.42217109	     -6.65416492	     18.56677577	     32.34734529	     86.01999953	     12.09353451	     -7.77018189	     22.75069092	     38.40512712	     90.56649241
      1.66666670	     -4.08630377	     -1.48050062	     -0.07869219	      0.61495004	      0.99513750	     -0.21521157	      1.69354055	      0.85483179	     -3.66954355	      1.31166599	      0.02289289	      2.15168248	    -22.09249677	     -7.49999784	     -2.19859020	     -3.18723804	    -10.71452229	      0.29523393	      0.00515280	      8.44496747	    -11.16162733	     -7.49999784	     -4.13297898	      2.21826010	      2.30606757	     10.40842706	     -6.65168683	     18.39216232	     31.98356438	     85.99310238	     10.73819930	     -7.87527096	     22.49508446	     37.13294226	     90.51562401
      1.68333330	     -3.97828562	     -1.52803280	      0.06636879	      0.61870629	      0.99393029	     -0.21771409	      1.31287586	      0.86234969	     -3.61497700	      1.20590787	      0.02104706	      2.26647948	    -22.09821410	     -7.49999796	     -2.49930321	     -3.17732627	    -10.71105232	      0.27030939	      0.00471779	      8.66012291	    -11.02097776	     -7.49999796	     -3.64887255	      2.26721856	      2.03917554	      9.45459661	     -6.72753158	     18.10221175	     31.44731257	     85.11116451	      9.47500508	     -7.92508439	     22.17096793	     35.54262517	     89.49094824
      1.70000000	     -4.18541181	     -1.56598013	      0.07467174	      0.61464550	      0.99768683	     -0.21534375	      1.38259697	      0.87834759	     -3.36750247	      1.14305696	      0.01995011	      2.36639653	    -22.30965792	     -7.49999805	     -2.42308520	     -3.17516127	    -10.60430430	      0.25210225	      0.00440001	      8.81028916	    -11.03286293	     -7.49999805	     -2.75444536	      2.24953895	      1.97269901	      8.46474819	     -6.82784473	     17.91138592	     30.62431694	     84.26668960	      8.29041851	     -7.99453290	     22.04582375	     33.65735628	     88.55618929
      1.71666670	     -4.31386375	     -1.63831193	      0.15816040	      0.61455710	      0.99713496	     -0.21557658	      1.38851448	      0.95277087	     -3.24949812	      1.04449866	      0.01822994	      2.46215842	    -22.30897339	     -7.49999843	     -2.36663264	     -3.22496538	    -10.57750099	      0.23954836	      0.00418091	      8.98895492	    -10.76868643	     -7.49999843	     -2.03233587	      2.26351987	      1.84050220	      7.60567479	     -7.01991623	     18.06474010	     29.92201630	     82.85795776	      7.31892304	     -8.12980250	     23.10724627	     31.69888154	     86.96422803
      1.73333330	     -4.08348664	     -1.68247439	      0.25050842	      0.62179577	      0.99905272	     -0.21472332	      0.93574756	      1.02143982	     -3.14576484	      0.99878768	      0.01743213	      2.51419699	    -22.28103793	     -7.49999844	     -2.77013962	     -3.28077923	    -10.48471582	      0.22222626	      0.00387858	      9.03137321	    -10.70613818	     -7.49999844	     -1.87428154	      2.20200865	      1.84262412	      6.58336978	     -7.26165911	     18.04962681	     29.58724741	     82.86539409	      5.94445504	     -8.52436874	     23.16368655	     31.05601363	     86.97763165
      1.75000000	     -4.00945617	     -1.73699824	      0.25165887	      0.61379767	      0.99956282	     -0.21527870	      0.74206241	      1.08108556	     -3.05847097	      0.87937627	      0.01534801	      2.65373356	    -22.24901810	     -7.49999844	     -2.88643639	     -3.31056729	    -10.42444113	      0.21766845	      0.00379903	      9.23269779	    -10.67242223	     -7.49999844	     -1.72739965	      2.19958740	      1.77982958	      5.80134701	     -7.60813939	     17.97186536	     29.18944025	     82.85670777	      4.76681052	     -8.93358815	     23.18353419	     30.21350134	     86.97592796
      1.76666670	     -4.35761913	     -1.76035530	      0.46312172	      0.62595981	      0.99929043	     -0.22220627	      0.81788476	      1.02507148	     -3.27342696	      0.70961017	      0.01238503	      2.78549787	    -21.73834897	     -7.49999849	     -2.65244755	     -3.26761482	    -10.48819155	      0.20853662	      0.00363965	      9.38898823	    -10.02975678	     -7.49999849	     -0.39878630	      2.30055754	      1.33405793	      4.86123883	     -7.60361068	     17.39146944	     27.23723823	     82.74848270	      3.84517130	     -8.39160503	     23.17627475	     26.33771300	     86.78131470
      1.78333330	     -4.46669391	     -1.81371284	      0.54699666	      0.62178534	      1.00241756	     -0.21962305	      0.74818742	      1.02251116	     -3.84694610	      0.62245477	      0.01086389	      3.29979955	    -20.62090046	     -7.49999868	     -2.63104246	     -3.25105597	    -10.60822369	      0.19714119	      0.00344076	      9.35753614	     -9.92377507	     -7.49999868	      0.19530581	      2.33672414	      1.12615562	      4.04980937	     -7.90887549	     17.02556439	     26.43936753	     81.66981855	      2.62085504	     -8.37524574	     23.28449317	     24.75299412	     85.39967159
      1.80000000	     -4.32201331	     -1.74642144	      0.46457346	      0.60988089	      0.99671634	     -0.21309665	      0.71035280	      0.99186323	     -3.43856983	      0.55003771	      0.00959997	      3.47208073	    -20.99080296	     -7.49999881	     -2.71044647	     -3.16758814	    -10.50116457	      0.19292227	      0.00336713	      9.48009085	     -9.98344802	     -7.49999881	     -0.06312441	      2.15629984	      1.20896195	      3.70307975	     -8.10625655	     16.76594956	     25.89048236	     80.39392250	      2.01956856	     -8.65317502	     23.60434588	     23.27892706	     83.82295520
      1.81666670	     -4.21163375	     -1.70081974	      0.43051514	      0.61329147	      0.99679493	     -0.21551432	      0.66753895	      0.97552594	     -3.24744448	      0.50581040	      0.00882806	      3.48505987	    -21.02591494	     -7.49999881	     -2.75544750	     -3.12024174	    -10.45628561	      0.19126761	      0.00333825	      9.34759890	     -9.96456042	     -7.49999881	     -0.13672323	      2.04670581	      1.27230251	      3.10442784	     -8.51743669	     16.70698564	     25.55283771	     80.39481296	      1.01966268	     -9.04456052	     23.69653856	     22.69998060	     83.81638586
